<?xml version="1.0" standalone="no"?>
<!DOCTYPE svg PUBLIC "-//W3C//DTD SVG 20010904//EN"
 "http://www.w3.org/TR/2001/REC-SVG-20010904/DTD/svg10.dtd">
<svg version="1.0" xmlns="http://www.w3.org/2000/svg"
 width="1151.000000pt" height="1151.000000pt" viewBox="0 0 1151.000000 1151.000000"
 preserveAspectRatio="xMidYMid meet">
<metadata>
Created by potrace 1.11, written by Peter Selinger 2001-2013
</metadata>
<g transform="translate(0.000000,1151.000000) scale(0.100000,-0.100000)"
fill="#000000" stroke="none">
<path d="M0 5755 l0 -5755 5755 0 5755 0 0 5755 0 5755 -5755 0 -5755 0 0
-5755z m3442 3130 c314 -33 561 -95 818 -206 324 -139 567 -301 822 -548 383
-370 629 -813 748 -1346 53 -237 64 -346 64 -625 0 -258 -7 -331 -51 -550 -86
-431 -292 -855 -581 -1200 -154 -184 -364 -377 -542 -495 -39 -27 -73 -52 -75
-56 -3 -4 59 -39 137 -78 140 -69 252 -132 533 -303 494 -301 987 -507 1416
-594 74 -14 142 -33 152 -42 36 -32 18 -83 -90 -254 -12 -21 -23 -40 -23 -43
0 -3 -20 -38 -44 -78 -43 -72 -136 -232 -184 -317 -98 -174 -377 -658 -385
-669 -22 -27 -59 -32 -155 -21 -405 49 -973 284 -1552 643 -232 144 -293 179
-448 257 -210 105 -453 200 -622 241 -210 52 -351 70 -594 76 -204 5 -231 8
-247 24 -47 47 -48 45 229 523 29 49 52 90 52 92 0 2 14 26 30 52 17 27 30 54
30 60 0 5 -39 15 -87 22 -473 67 -877 231 -1273 519 -148 107 -367 316 -479
456 -31 39 -58 72 -61 75 -6 6 -36 48 -103 147 -215 315 -367 710 -429 1108
-25 166 -35 499 -19 656 48 470 196 889 446 1264 191 286 443 545 720 737 324
226 678 371 1093 448 219 41 515 51 754 25z m5048 -233 c14 -11 53 -68 88
-128 34 -60 89 -154 121 -209 32 -55 102 -176 156 -270 311 -540 410 -711 520
-900 67 -115 149 -257 182 -315 33 -58 91 -159 130 -225 39 -66 122 -210 185
-320 245 -425 424 -735 491 -850 38 -66 77 -133 87 -150 9 -16 43 -75 75 -130
32 -55 106 -183 165 -285 58 -102 133 -230 165 -285 32 -55 66 -113 75 -130
10 -16 50 -86 90 -155 40 -69 84 -145 98 -169 14 -25 38 -67 53 -93 33 -56 37
-98 12 -120 -39 -33 -309 -187 -508 -289 -313 -160 -597 -273 -865 -342 -177
-46 -184 -44 -232 43 -17 30 -79 138 -138 240 -59 102 -211 365 -337 585 -210
366 -315 547 -541 940 -88 152 -116 179 -176 168 -56 -10 -62 -19 -219 -293
-33 -58 -90 -157 -126 -220 -37 -63 -98 -169 -136 -235 -38 -66 -100 -174
-138 -240 -63 -108 -195 -337 -480 -833 -72 -125 -106 -176 -124 -183 -50 -19
-429 94 -703 210 -252 107 -709 349 -827 438 -50 37 -45 68 32 197 36 60 65
110 65 112 0 2 14 27 31 56 40 67 118 200 229 393 48 83 130 224 182 315 53
91 145 251 205 355 61 105 152 262 203 350 51 88 143 248 205 355 62 107 127
220 145 250 18 30 65 111 105 180 40 69 154 267 255 440 100 173 194 335 208
360 13 25 39 70 58 100 40 67 246 423 402 695 63 110 122 214 132 230 10 17
58 100 108 185 49 85 101 163 114 173 52 39 124 38 178 -1z"/>
<path d="M3030 7244 c-14 -2 -52 -9 -85 -15 -214 -37 -420 -144 -568 -294
-207 -211 -320 -516 -304 -823 24 -472 350 -875 805 -999 186 -50 446 -42 626
19 495 168 814 687 732 1189 -74 446 -391 793 -820 898 -87 22 -322 37 -386
25z"/>
</g>
</svg>
